<?xml version="1.0" ?><svg height="24px" version="1.1" viewBox="0 0 24 24" width="24px" xmlns="http://www.w3.org/2000/svg" xmlns:sketch="http://www.bohemiancoding.com/sketch/ns" xmlns:xlink="http://www.w3.org/1999/xlink"><title/><desc/><defs/><g fill="none" fill-rule="evenodd" id="miu" stroke="none" stroke-width="1"><g id="Artboard-1" transform="translate(-539.000000, -227.000000)"><g id="slice" transform="translate(215.000000, 119.000000)"/><path d="M542.206336,231 C542.09238,231 542,231.093268 542,231.210129 L542,249.789871 C542,249.905922 542.091899,250 542.206336,250 L556.793664,250 C556.90762,250 557,249.906732 557,249.789871 L557,231.210129 C557,231.094078 556.908101,231 556.793664,231 L542.206336,231 L542.206336,231 Z M544,234 L544,235 L555,235 L555,234 L544,234 L544,234 Z M544,237 L544,238 L555,238 L555,237 L544,237 L544,237 Z M544,240 L544,241 L555,241 L555,240 L544,240 L544,240 Z M544,243 L544,244 L555,244 L555,243 L544,243 L544,243 Z M544,246 L544,247 L551,247 L551,246 L544,246 L544,246 Z M545,230 L558,230 L558,247 L560,247 L560,228 L545,228 L545,230 Z" fill="#000000" id="editor-documents-files-glyph"/></g></g></svg>